Coordinates
version=1
nRows=17
nColumns=40
inDegrees=yes

Units are S.I. units (second, meters, Newtons, ...)
Angles are in degrees.

endheader
time	pelvis_tilt	pelvis_list	pelvis_rotation	pelvis_tx	pelvis_ty	pelvis_tz	hip_flexion_r	hip_adduction_r	hip_rotation_r	knee_angle_r	knee_angle_r_beta	ankle_angle_r	subtalar_angle_r	mtp_angle_r	hip_flexion_l	hip_adduction_l	hip_rotation_l	knee_angle_l	knee_angle_l_beta	ankle_angle_l	subtalar_angle_l	mtp_angle_l	lumbar_extension	lumbar_bending	lumbar_rotation	arm_flex_r	arm_add_r	arm_rot_r	elbow_flex_r	pro_sup_r	wrist_flex_r	wrist_dev_r	arm_flex_l	arm_add_l	arm_rot_l	elbow_flex_l	pro_sup_l	wrist_flex_l	wrist_dev_l
     43.42650000	     -5.48447135	     -6.61341763	      3.77169031	      1.07142391	      0.91243323	      0.44538547	     -1.83476958	      5.77017270	    -16.35820119	      9.86024696	      9.86024696	     19.16394575	      7.10529768	     -2.15499365	     34.87990262	     -8.23425743	     -7.28001022	     15.89895855	     15.89895855	      2.86353122	     -6.81724609	      7.39569473	     -9.50386716	      8.12154767	      3.73613296	     48.05990092	    -14.12524979	     -2.19977234	     92.93064058	     44.25829439	      0.00000000	      0.00000000	    -19.04461204	     -5.57205653	      8.09511162	     24.48691284	     44.75482767	      0.00000000	      0.00000000
     43.43800000	     -5.43037796	     -6.41489538	      3.75590945	      1.07299703	      0.91082918	      0.44351230	     -2.47745074	      5.42129572	    -16.11425180	     10.26160493	     10.26160493	     19.78291306	      6.85889495	     -2.14379203	     34.67343604	     -7.96674696	     -7.57381541	     17.02330251	     17.02330251	      2.07377957	     -8.29733752	      7.23207576	     -9.31103800	      7.73136959	      3.55296028	     48.28405101	    -13.83894809	     -2.03758056	     94.41379708	     44.21402038	      0.00000000	      0.00000000	    -19.46508255	     -5.64339565	      8.08303095	     24.42954864	     44.75419707	      0.00000000	      0.00000000
     43.44950000	     -5.55760659	     -6.31481517	      3.75323246	      1.07450059	      0.90900178	      0.44142483	     -2.65535790	      5.08870971	    -15.78650708	     11.18233382	     11.18233382	     20.63216176	      6.25168578	     -1.57565057	     34.54527741	     -7.59920781	     -6.94747815	     17.84689795	     17.84689795	      0.50043504	    -11.05205735	      6.27272076	     -8.98724566	      7.58241118	      3.58073820	     47.66563628	    -13.98045080	     -1.80670590	     98.47586259	     44.10420836	      0.00000000	      0.00000000	    -19.74420808	     -5.76205929	      7.86782276	     24.80597186	     44.80579720	      0.00000000	      0.00000000
     43.46100000	     -5.43108605	     -6.16387865	      3.68621867	      1.07630993	      0.90772069	      0.43947918	     -3.18011401	      4.71825934	    -15.46029313	     12.01588912	     12.01588912	     21.56091674	      5.95514162	     -0.52269826	     34.19235886	     -7.40294776	     -6.82727968	     18.87645864	     18.87645864	     -1.01946214	    -13.00182152	      4.25631864	     -8.92629573	      7.28720249	      4.27654982	     46.78103603	    -14.69607995	     -2.30957037	    101.84495488	     44.08582241	      0.00000000	      0.00000000	    -19.43076502	     -6.00235509	      7.50194741	     24.78200710	     44.93026939	      0.00000000	      0.00000000
     43.47250000	     -5.22403559	     -5.86642201	      3.60129887	      1.07819834	      0.90693650	      0.43752505	     -3.85612854	      4.19953611	    -15.16519736	     12.69196731	     12.69196731	     21.91467130	      5.68569284	     -0.64536620	     33.85633567	     -7.19657198	     -7.01799627	     20.23008767	     20.23008767	     -1.28743175	    -13.90293470	      4.12926111	     -8.85395542	      6.79432716	      4.01085272	     46.49413812	    -14.30453057	     -2.10426157	    102.49534224	     44.06201915	      0.00000000	      0.00000000	    -19.40494850	     -6.12620628	      7.47360457	     24.71338446	     44.93933343	      0.00000000	      0.00000000
     43.48400000	     -5.33964959	     -5.74393460	      3.58065717	      1.07950400	      0.90568753	      0.43540675	     -3.56065935	      3.72811013	    -14.70902159	     14.47527481	     14.47527481	     22.40495505	      4.61556667	     -0.94434489	     34.05369750	     -7.02190379	     -6.64372782	     21.71914837	     21.71914837	     -1.48239757	    -15.18419686	      3.88772072	     -8.57544984	      6.62593407	      3.59779782	     46.00724205	    -13.82004396	     -1.70852866	    105.05629300	     43.98254240	      0.00000000	      0.00000000	    -19.25692675	     -6.07683773	      7.31461509	     24.70478980	     44.98260272	      0.00000000	      0.00000000
     43.49550000	     -5.27139890	     -5.48926253	      3.51250688	      1.08094500	      0.90528148	      0.43339048	     -3.46980667	      3.15977750	    -14.13017859	     16.22134413	     16.22134413	     22.59809484	      3.38846857	     -1.33068113	     33.90547605	     -6.80005012	     -6.53656313	     23.02126506	     23.02126506	     -1.28914489	    -16.01121217	      3.74075757	     -8.51257844	      6.15818595	      3.67331505	     44.86224629	    -13.96959307	     -1.51062357	    107.45628055	     43.91825989	      0.00000000	      0.00000000	    -18.75740168	     -6.25338255	      7.00192436	     24.72239275	     45.06329313	      0.00000000	      0.00000000
     43.50700000	     -5.15923974	     -5.22267915	      3.47188038	      1.08224066	      0.90533448	      0.43121796	     -3.26493689	      2.54067562	    -13.65544597	     18.22696074	     18.22696074	     22.54953009	      2.16237381	     -1.94896705	     33.69533589	     -6.57443401	     -6.48805326	     24.29257742	     24.29257742	     -0.72453036	    -16.45401092	      3.56490682	     -8.50231557	      5.74828033	      3.61159560	     43.72154745	    -13.95113033	     -1.34518918	    109.26412787	     43.86914873	      0.00000000	      0.00000000	    -18.06501411	     -6.35233749	      6.76495192	     24.69655450	     45.13100412	      0.00000000	      0.00000000
     43.51850000	     -5.09570093	     -4.96649159	      3.45051213	      1.08333094	      0.90578339	      0.42898595	     -2.77428413	      1.93405105	    -13.08716396	     20.56797253	     20.56797253	     22.03155714	      0.41888955	     -3.10954481	     33.42812392	     -6.30695756	     -6.35546710	     25.34526820	     25.34526820	      0.18311659	    -16.69469783	      3.67726843	     -8.49920380	      5.34737817	      3.75975886	     42.05747052	    -14.23056822	     -1.25359790	    111.49780807	     43.81692878	      0.00000000	      0.00000000	    -17.03281457	     -6.49837442	      6.39188101	     24.53948730	     45.23574702	      0.00000000	      0.00000000
     43.53000000	     -4.95560217	     -4.68691222	      3.42126928	      1.08433799	      0.90674780	      0.42668579	     -2.27439299	      1.32896969	    -12.49764280	     22.92511936	     22.92511936	     20.47257865	     -1.85835134	     -6.30915631	     33.02771645	     -6.01670251	     -6.27733977	     26.35185113	     26.35185113	      1.58857317	    -16.70107600	      4.51007615	     -8.61123966	      4.93709440	      4.40846149	     39.88670083	    -14.93522840	     -1.69060663	    114.28374091	     43.80709272	      0.00000000	      0.00000000	    -15.34906934	     -6.54805711	      5.60760031	     23.75558976	     45.45156257	      0.00000000	      0.00000000
     43.54150000	     -4.88008913	     -4.37552422	      3.40419791	      1.08500832	      0.90790069	      0.42425722	     -1.24983073	      0.49302112	    -12.38277817	     26.19288145	     26.19288145	     19.53975452	     -3.40686773	     -7.31716025	     32.47979658	     -5.67196744	     -6.36355796	     26.90380913	     26.90380913	      2.52222677	    -16.65405260	      4.11832691	     -8.62837521	      4.50377685	      3.89455664	     38.42277301	    -14.47203777	     -1.23111774	    114.79137510	     43.78340356	      0.00000000	      0.00000000	    -14.37380720	     -6.61004246	      5.48947771	     23.85593957	     45.49752317	      0.00000000	      0.00000000
     43.55300000	     -4.80484064	     -4.11755516	      3.38884277	      1.08550819	      0.90934810	      0.42185333	     -0.23984884	     -0.15130619	    -11.97840036	     29.04507885	     29.04507885	     16.09686361	     -6.95752455	    -13.63493233	     31.87345323	     -5.35355614	     -6.42515419	     27.34680502	     27.34680502	      3.71576105	    -16.52546748	      4.44665239	     -8.68377958	      4.18062035	      4.12107347	     36.18791244	    -14.71746789	     -1.27451603	    116.42350214	     43.85998497	      0.00000000	      0.00000000	    -12.57675181	     -6.54924784	      4.28340328	     23.09653773	     45.78737206	      0.00000000	      0.00000000
     43.56450000	     -4.70861289	     -3.78531514	      3.34302877	      1.08582712	      0.91099213	      0.41941037	      1.18334903	     -1.09707562	    -12.04577707	     32.89469088	     32.89469088	     14.50443025	     -8.77247730	    -14.04285257	     31.04311402	     -4.96534899	     -6.66478412	     27.42721335	     27.42721335	      4.62426010	    -16.38775146	      3.95967246	     -8.75922709	      3.76318208	      3.62989225	     34.34990669	    -14.38577405	     -0.65382674	    116.61313799	     43.83489491	      0.00000000	      0.00000000	    -11.44954726	     -6.65785239	      4.19498650	     23.45849915	     45.82508455	      0.00000000	      0.00000000
     43.57600000	     -4.62719602	     -3.45309686	      3.31830273	      1.08592920	      0.91270603	      0.41698196	      2.80868037	     -2.04440107	    -12.05718813	     36.92556488	     36.92556488	     12.40780248	    -10.93941569	    -14.38479815	     30.16805299	     -4.56328259	     -6.92673759	     27.36337657	     27.36337657	      5.37939847	    -16.12041680	      3.51200919	     -8.82532677	      3.38669027	      3.26048916	     32.29968214	    -14.14626959	     -0.01501758	    116.76639026	     43.80839020	      0.00000000	      0.00000000	    -10.14474862	     -6.80054089	      4.08922512	     23.87220821	     45.86879051	      0.00000000	      0.00000000
     43.58750000	     -4.55785458	     -3.17212922	      3.29406543	      1.08583491	      0.91442930	      0.41463153	      4.56770081	     -2.96011661	    -12.13060336	     40.98809445	     40.98809445	      9.96193418	    -13.15586989	    -14.46777935	     29.22506205	     -4.19772424	     -7.19336567	     27.12132169	     27.12132169	      6.12750191	    -15.80030151	      3.04575331	     -8.90949006	      3.05202044	      2.91170079	     30.15381883	    -13.98687025	      0.59065947	    116.77274850	     43.78615542	      0.00000000	      0.00000000	     -8.71229676	     -6.94017626	      3.97471210	     24.34388753	     45.91557340	      0.00000000	      0.00000000
     43.59900000	     -4.62806464	     -2.96997317	      3.20082263	      1.08548513	      0.91595390	      0.41247931	      6.64118660	     -3.74623565	    -12.03683017	     45.07511996	     45.07511996	      7.18614956	    -15.69830333	    -14.24459589	     28.34869601	     -3.93778876	     -7.56677964	     26.67729330	     26.67729330	      6.69764632	    -15.36847627	      2.47771792	     -8.81829362	      2.83824796	      2.79893194	     27.78499104	    -14.19893673	      1.09412947	    116.78839899	     43.77166319	      0.00000000	      0.00000000	     -7.23786774	     -7.07673855	      3.74650073	     24.83163445	     45.98162722	      0.00000000	      0.00000000
     43.61050000	     -4.55479905	     -2.67352749	      3.11777865	      1.08510486	      0.91754673	      0.41038137	      8.59114284	     -4.76143867	    -12.18044861	     49.09656944	     49.09656944	      4.68590101	    -17.31102618	    -13.41263788	     27.32859620	     -3.60240298	     -8.01823494	     26.27012093	     26.27012093	      7.25583073	    -14.92075188	      1.90508763	     -8.92979592	      2.48518276	      2.58845271	     25.40196664	    -14.12407420	      1.60317756	    116.39956962	     43.76640396	      0.00000000	      0.00000000	     -5.67406012	     -7.27707997	      3.53872262	     25.37597543	     46.04408079	      0.00000000	      0.00000000
